<svg xmlns="http://www.w3.org/2000/svg" viewBox="0 0 1500 100" preserveAspectRatio="none" role="presentation">
  <!-- Interims-Footer: Ersatz für footer-woods.png aus dem Design-Projekt
       (Original > 256 KiB, siehe PROGRESS.md M2). Dunkle Tannen-Silhouette. -->
  <rect width="1500" height="100" fill="oklch(0.12 0.03 155)"/>
  <path fill="oklch(0.17 0.035 155)" d="M0 100 L0 62 L30 38 L60 62 L60 52 L95 26 L130 52 L130 64 L165 40 L200 64 L200 48 L240 20 L280 48 L280 60 L315 38 L350 60 L350 50 L390 24 L430 50 L430 66 L465 44 L500 66 L500 52 L540 28 L580 52 L580 62 L615 40 L650 62 L650 46 L690 18 L730 46 L730 60 L765 38 L800 60 L800 52 L840 26 L880 52 L880 66 L915 44 L950 66 L950 48 L990 22 L1030 48 L1030 60 L1065 38 L1100 60 L1100 50 L1140 24 L1180 50 L1180 64 L1215 42 L1250 64 L1250 48 L1290 20 L1330 48 L1330 60 L1365 38 L1400 60 L1400 54 L1435 32 L1470 54 L1470 68 L1500 48 L1500 100 Z"/>
  <path fill="oklch(0.14 0.03 155)" d="M0 100 L0 78 L45 52 L90 78 L90 70 L140 42 L190 70 L190 80 L235 56 L280 80 L280 68 L330 40 L380 68 L380 78 L425 54 L470 78 L470 66 L520 38 L570 66 L570 80 L615 58 L660 80 L660 70 L710 44 L760 70 L760 80 L805 56 L850 80 L850 68 L900 40 L950 68 L950 78 L995 54 L1040 78 L1040 66 L1090 38 L1140 66 L1140 80 L1185 58 L1230 80 L1230 70 L1280 44 L1330 70 L1330 80 L1375 58 L1420 80 L1420 70 L1460 48 L1500 70 L1500 100 Z"/>
</svg>
