<!-- Hintergrund-Wasserzeichen: Rothaus-Zapfen, 180° gedreht (Zapfen hängen nach unten). Basis: gemini-svg vom Nutzer. -->
<svg xmlns="http://www.w3.org/2000/svg" viewBox="-50 -50 1100 1100" width="100%" height="100%">
  <defs>

  </defs>
  <g transform="rotate(180 500 500)">
  <path class="zapfen" d="
    M 902,544 L 667,779 L 739,851 L 764,877 L 764,950 L 713,1001 L 640,1001 L 614,975 L 514,875 L 88,875 L 51,875 L 0,823 L 0,751 L 51,699 L 88,699 L 227,699 L 104,576 L 78,550 L 78,477 L 104,452 L 118,437 L 138,431 L 86,379 L 60,353 L 60,281 L 112,229 L 184,229 L 210,255 L 217,262 L 221,156 L 228,128 L 231,109 L 237,77 L 243,61 L 254,33 L 274,19 L 299,0 L 379,0 L 404,19 L 423,33 L 434,61 L 440,77 L 446,109 L 448,116 L 514,118 L 537,174 L 562,123 L 627,123 L 668,123 L 692,142 L 712,157 L 723,185 L 729,201 L 735,232 L 739,251 L 747,288 L 751,447 L 777,421 L 802,395 L 874,395 L 926,445 L 927,518 Z
    M 850,482 L 899,482 L 899,474 L 897,467 L 894,455 L 886,446 Z
    M 832,423 L 811,425 L 796,440 L 794,443 L 831,480 L 832,480 Z
    M 714,271 L 713,263 L 712,258 L 709,242 L 691,233 L 660,238 L 629,248 L 662,259 L 694,274 Z
    M 627,151 L 586,151 L 567,176 L 589,181 L 605,185 L 634,174 L 664,167 L 676,164 L 664,155 L 647,152 L 637,151 Z
    M 538,370 L 538,365 L 537,360 L 537,354 L 508,338 L 503,339 L 485,342 L 463,348 L 463,360 L 487,368 L 508,379 L 510,380 L 524,378 L 538,376 L 538,371 Z
    M 503,169 L 502,170 L 479,174 L 456,181 L 457,188 L 481,197 L 504,208 L 510,210 L 520,209 L 514,184 L 505,171 L 504,169 Z
    M 463,375 L 463,379 L 463,390 L 485,384 Z
    M 462,318 L 462,324 L 463,333 L 485,328 Z
    M 461,261 L 461,269 L 461,277 L 476,273 L 485,271 Z
    M 458,204 L 458,212 L 459,222 L 474,217 L 486,215 L 486,215 L 474,210 Z
    M 458,448 L 476,443 L 485,441 L 462,431 L 461,440 Z
    M 455,165 L 455,166 L 476,160 L 492,157 L 492,157 L 478,146 L 453,144 Z
    M 508,225 L 483,229 L 460,236 L 460,246 L 484,254 L 506,265 L 510,267 L 531,264 L 529,255 L 528,250 L 525,234 Z
    M 532,278 L 532,278 L 532,278 L 532,278 Z
    M 520,288 L 514,285 L 508,282 L 484,286 L 462,292 L 462,303 L 486,312 L 508,322 L 510,323 L 535,320 L 534,296 Z
    M 536,334 L 534,334 L 532,335 L 536,337 Z
    M 539,391 L 534,391 L 532,391 L 539,395 Z
    M 539,412 L 538,411 L 525,403 L 510,396 L 508,395 L 498,396 L 483,399 L 464,405 L 463,416 L 487,425 L 507,435 L 510,436 L 540,433 Z
    M 540,447 L 539,447 L 532,448 L 540,452 Z
    M 541,471 L 541,469 L 539,468 L 524,459 L 508,451 L 478,456 L 450,465 L 449,468 L 476,477 L 502,489 L 509,492 L 525,490 L 541,489 Z
    M 440,480 L 423,501 L 398,511 L 406,513 L 417,515 L 422,516 L 423,516 L 453,504 L 485,497 L 465,488 Z
    M 423,134 L 420,118 L 403,109 L 389,111 L 375,115 L 357,119 L 340,125 L 366,133 L 391,144 L 405,151 L 426,148 Z
    M 415,91 L 413,82 L 410,75 L 406,64 L 400,54 L 399,53 L 394,54 L 375,58 L 356,63 L 340,68 L 343,69 L 375,79 L 405,94 L 415,93 Z
    M 254,134 L 253,139 L 252,147 L 258,144 L 274,135 L 291,128 L 294,127 L 291,126 L 280,124 L 269,122 L 257,121 Z
    M 244,264 L 245,264 L 246,263 L 265,253 L 286,243 L 294,240 L 291,239 L 276,236 L 261,234 L 246,232 L 244,263 Z
    M 135,258 L 127,260 L 115,266 L 111,269 L 135,294 Z
    M 131,310 L 100,279 L 94,287 L 91,296 L 89,303 L 88,310 Z
    M 88,324 L 89,329 L 90,334 L 155,334 L 145,324 Z
    M 118,477 L 107,492 L 106,510 L 105,513 L 155,513 L 118,476 Z
    M 108,531 L 109,534 L 110,538 L 180,538 L 169,527 L 107,527 Z
    M 265,799 L 265,847 L 277,847 L 277,799 Z
    M 291,847 L 303,847 L 303,799 L 291,799 Z
    M 318,847 L 329,847 L 329,799 L 318,799 Z
    M 344,847 L 356,847 L 356,798 L 344,798 Z
    M 370,847 L 382,847 L 382,798 L 370,798 Z
    M 396,847 L 408,847 L 408,798 L 396,798 Z
    M 422,847 L 516,847 L 526,848 L 564,887 L 564,805 L 536,776 L 562,750 L 529,717 L 492,754 L 462,724 L 424,762 L 461,798 L 422,798 Z
    M 579,901 L 589,911 L 589,830 L 579,819 Z
    M 603,925 L 614,936 L 614,854 L 603,844 Z
    M 628,950 L 634,956 L 639,960 L 639,879 L 628,869 Z
    M 633,854 L 668,819 L 659,811 L 625,845 Z
    M 811,521 L 801,531 L 876,531 L 886,521 Z
    M 209,471 L 194,456 L 173,454 L 173,511 L 211,473 Z
    M 705,607 L 705,607 L 705,606 L 705,606 L 707,600 L 708,595 L 708,588 L 708,572 L 700,558 L 698,554 L 695,551 L 669,577 L 702,610 Z
    M 562,303 L 562,305 L 562,308 L 563,316 L 582,307 Z
    M 614,315 L 610,314 L 606,313 L 599,315 L 582,322 L 563,332 L 564,346 L 565,346 L 589,350 L 600,353 L 605,354 L 610,352 L 629,345 L 649,340 L 669,335 L 643,324 L 616,315 Z
    M 567,442 L 567,442 Z
    M 567,417 L 567,427 L 582,420 Z
    M 568,498 L 568,498 Z
    M 570,530 L 568,530 L 568,536 L 567,542 L 572,540 L 579,532 Z
    M 568,474 L 568,477 L 568,483 L 582,476 Z
    M 605,545 L 602,548 L 640,585 L 640,528 L 620,530 Z
    M 592,558 L 584,566 L 622,604 L 630,595 Z
    M 568,514 L 568,516 L 582,518 L 592,521 L 608,508 L 645,499 L 665,503 L 662,501 L 647,495 L 631,490 L 618,485 L 606,482 L 588,489 L 568,499 Z
    M 640,605 L 632,614 L 665,647 L 673,639 Z
    M 622,624 L 613,632 L 646,666 L 655,657 Z
    M 574,576 L 565,585 L 603,622 L 611,614 Z
    M 565,371 L 567,371 L 569,369 L 582,363 L 565,360 Z
    M 566,387 L 566,388 L 566,403 L 567,403 L 590,407 L 601,409 L 605,410 L 636,399 L 669,392 L 638,378 L 606,369 L 600,371 L 584,378 Z
    M 568,458 L 568,459 L 569,460 L 591,463 L 601,466 L 605,467 L 610,465 L 639,455 L 669,448 L 638,435 L 606,426 L 588,433 L 567,443 L 568,457 Z
    M 655,528 L 655,571 L 685,540 L 672,530 Z
    M 659,587 L 650,595 L 683,629 L 692,620 Z
    M 603,642 L 595,651 L 628,684 L 636,676 Z
    M 605,297 L 637,286 L 669,279 L 652,271 L 635,265 L 620,260 L 606,256 L 582,265 L 560,277 L 561,289 L 588,293 L 602,297 Z
    M 582,250 L 572,248 L 555,246 L 557,251 L 558,262 L 571,255 Z
    M 254,162 L 286,166 L 317,174 L 348,162 L 381,155 L 364,148 L 344,140 L 323,134 L 317,133 L 285,145 Z
    M 380,211 L 380,211 L 380,211 L 375,209 L 347,197 L 318,189 L 317,189 L 285,202 L 254,219 L 271,221 L 289,224 L 303,227 L 317,230 L 338,223 L 359,216 L 380,212 L 380,212 Z
    M 334,251 L 331,250 L 327,248 L 317,246 L 285,258 L 254,275 L 272,277 L 291,281 L 304,284 L 317,287 L 329,282 L 343,278 L 362,272 L 380,268 L 336,251 Z
    M 335,307 L 335,307 L 317,302 L 285,315 L 254,332 L 286,335 L 317,343 L 348,332 L 380,325 L 358,315 Z
    M 229,567 L 267,529 L 258,521 L 220,558 Z
    M 591,721 L 599,713 L 566,680 L 558,688 Z
    M 276,614 L 284,622 L 322,585 L 314,576 Z
    M 295,558 L 257,595 L 266,604 L 304,566 Z
    M 311,534 L 320,544 L 319,536 L 319,529 L 319,520 L 304,518 L 290,514 Z
    M 332,595 L 294,632 L 303,641 L 341,603 Z
    M 406,669 L 369,706 L 377,715 L 415,677 Z
    M 384,596 L 387,595 L 390,592 L 398,587 L 408,582 L 383,575 L 358,572 L 368,587 Z
    M 471,608 L 450,596 L 427,588 L 413,595 L 399,603 L 419,610 L 444,610 L 457,610 Z
    M 388,650 L 350,688 L 359,696 L 396,659 Z
    M 342,700 L 267,700 L 279,712 L 354,712 Z
    M 332,670 L 340,678 L 378,640 L 369,632 L 331,669 Z
    M 351,613 L 313,651 L 321,659 L 359,622 Z
    M 351,484 L 337,477 L 322,472 L 308,479 L 295,487 L 317,495 L 347,494 L 357,493 L 366,492 Z
    M 279,480 L 291,473 L 303,466 L 293,463 L 283,461 L 268,458 L 253,456 L 258,463 L 267,474 Z
    M 267,442 L 266,442 L 265,443 L 294,447 L 321,457 L 344,446 L 368,439 L 375,437 L 348,424 L 319,415 L 309,420 L 299,424 L 282,432 Z
    M 362,519 L 354,520 L 346,521 L 346,529 L 346,542 L 350,555 L 366,544 L 384,534 L 402,525 L 401,525 L 389,523 L 364,520 L 364,520 Z
    M 370,559 L 371,559 L 373,560 L 374,560 L 392,563 L 410,568 L 426,573 L 440,566 L 456,560 L 468,556 L 480,553 L 470,548 L 459,544 L 442,537 L 424,531 L 414,536 L 403,541 L 387,549 L 372,558 Z
    M 556,669 L 518,632 L 510,640 L 547,678 Z
    M 492,680 L 481,669 L 473,677 L 510,715 L 519,706 Z
    M 449,581 L 464,588 L 479,596 L 491,602 L 512,594 L 525,578 L 513,570 L 500,563 L 472,569 L 446,580 Z
    M 500,650 L 491,659 L 529,696 L 537,688 Z
    M 454,696 L 492,733 L 500,725 L 463,687 Z
    M 477,634 L 444,641 L 410,634 L 444,668 Z
    M 444,705 L 406,744 L 414,752 L 452,714 Z
    M 425,687 L 387,725 L 396,733 L 433,696 Z
    M 285,548 L 277,539 L 239,577 L 247,585 Z
    M 274,390 L 294,394 L 313,399 L 318,400 L 329,395 L 341,392 L 360,385 L 380,381 L 369,376 L 357,371 L 337,364 L 317,359 L 311,361 L 290,370 L 269,380 L 255,388 Z
    M 417,443 L 420,445 L 423,447 L 428,450 L 432,441 Z
    M 408,474 L 408,474 L 415,469 L 420,462 L 408,454 L 395,447 L 381,450 L 368,454 L 341,464 L 356,470 L 371,478 L 386,486 L 391,484 L 403,478 L 408,474 Z
    M 522,559 L 525,560 L 527,562 L 533,566 L 535,561 L 537,557 Z
    M 609,703 L 618,694 L 585,661 L 576,669 Z
    M 581,731 L 547,698 L 539,706 L 572,740 Z
    M 256,432 L 276,419 L 297,409 L 278,406 L 262,403 L 246,401 L 241,401 L 241,413 L 241,426 L 245,439 Z
    M 528,622 L 566,659 L 574,651 L 537,613 Z
    M 552,231 L 576,234 L 600,240 L 605,241 L 623,234 L 642,229 L 656,225 L 669,222 L 651,214 L 632,208 L 619,203 L 606,200 L 602,201 L 576,212 L 551,225 Z
    M 694,460 L 693,459 L 691,458 L 672,462 L 653,467 L 641,470 L 629,474 L 662,484 L 693,500 L 699,499 L 722,475 L 709,467 Z
    M 786,546 L 776,556 L 851,556 L 862,546 Z
    M 762,570 L 735,597 L 731,628 L 710,650 L 698,661 L 746,661 L 837,570 Z
    M 684,675 L 637,723 L 685,723 L 732,675 Z
    M 624,737 L 647,760 L 670,737 Z
    M 641,792 L 606,827 L 615,835 L 649,801 Z
    M 622,774 L 588,808 L 596,817 L 631,782 Z
    M 612,764 L 604,755 L 569,790 L 578,798 Z
    M 370,728 L 368,727 L 256,727 L 313,784 L 426,784 Z
    M 293,784 L 236,727 L 221,727 L 278,784 Z
    M 253,686 L 328,686 L 243,601 L 168,601 L 227,660 Z
    M 229,587 L 218,577 L 143,577 L 153,587 Z
    M 204,562 L 194,552 L 119,552 L 129,562 Z
    M 196,355 L 214,373 L 215,337 Z
    M 159,497 L 159,454 L 142,456 L 128,466 Z
    M 205,384 L 194,373 L 119,373 L 129,384 Z
    M 180,359 L 170,349 L 97,349 L 100,354 L 105,359 Z
    M 149,256 L 149,256 L 149,256 L 149,256 L 149,308 L 187,271 L 184,268 L 169,257 L 150,257 Z
    M 205,289 L 197,280 L 159,318 L 168,327 Z
    M 178,337 L 186,345 L 215,316 L 216,299 L 215,299 Z
    M 214,414 L 214,414 L 214,398 L 144,398 L 172,426 L 197,428 L 219,445 L 214,430 Z
    M 183,521 L 192,530 L 229,492 L 221,484 Z
    M 202,540 L 210,548 L 248,511 L 240,502 Z
    M 241,349 L 242,349 L 241,379 L 257,370 L 274,362 L 294,353 L 273,349 L 257,346 L 242,345 L 242,349 Z
    M 294,296 L 269,291 L 243,289 L 243,322 L 267,307 Z
    M 294,183 L 281,181 L 269,179 L 249,176 L 247,206 L 270,194 Z
    M 263,107 L 264,107 L 283,110 L 302,114 L 317,118 L 322,116 L 341,109 L 361,103 L 381,99 L 377,97 L 359,89 L 339,83 L 317,76 L 301,83 L 280,92 L 260,102 L 260,107 Z
    M 276,78 L 285,74 L 294,70 L 293,70 L 282,68 L 271,66 L 267,75 L 265,84 Z
    M 278,53 L 279,53 L 281,53 L 282,54 L 294,56 L 305,58 L 317,61 L 351,48 L 387,41 L 370,27 L 339,27 L 297,27 Z
    M 427,162 L 427,162 Z
    M 429,180 L 417,172 L 403,166 L 382,170 L 363,174 L 344,180 L 340,181 L 345,182 L 376,193 L 405,207 L 431,204 Z
    M 431,220 L 431,219 L 431,218 L 427,219 L 431,221 Z
    M 432,238 L 418,230 L 403,222 L 391,224 L 378,227 L 362,231 L 346,236 L 340,237 L 344,239 L 375,249 L 405,264 L 419,261 L 433,260 L 432,239 Z
    M 434,275 L 430,275 L 427,275 L 434,279 Z
    M 435,310 L 435,306 L 435,303 L 434,296 L 419,287 L 403,278 L 371,284 L 340,294 L 362,301 L 382,309 L 401,318 L 405,320 L 435,317 Z
    M 435,331 L 435,331 L 427,332 L 435,336 Z
    M 436,354 L 436,353 L 420,344 L 403,335 L 391,337 L 378,340 L 359,344 L 340,350 L 373,361 L 404,376 L 422,374 L 436,373 Z
    M 436,387 L 431,387 L 427,388 L 436,393 Z
    M 436,410 L 420,400 L 402,391 L 397,392 L 378,396 L 359,401 L 340,407 L 368,416 L 393,430 L 397,432 L 421,428 L 435,426 L 436,420 L 436,413 Z
    M 541,503 L 536,503 L 532,504 L 541,509 Z
    M 541,526 L 525,516 L 507,507 L 501,508 L 483,511 L 466,516 L 456,519 L 445,523 L 473,533 L 498,546 L 502,548 L 506,547 L 517,545 L 528,543 L 540,542 L 541,536 L 541,529 Z
    M 552,609 L 585,641 L 593,632 L 555,595 L 547,603 Z
    M 582,194 L 571,191 L 560,190 L 556,198 L 553,208 L 567,200 Z
    M 629,192 L 662,202 L 694,218 L 704,216 L 698,191 L 688,177 L 658,182 Z
    M 716,286 L 716,286 L 716,286 Z
    M 717,303 L 716,302 L 691,289 L 686,290 L 666,294 L 646,299 L 629,304 L 662,315 L 694,331 L 719,328 L 718,306 Z
    M 720,342 L 718,342 L 716,342 L 720,345 Z
    M 691,345 L 690,346 L 686,346 L 686,347 L 666,350 L 646,356 L 629,361 L 649,367 L 669,376 L 682,381 L 694,387 L 722,384 L 721,362 L 707,353 Z
    M 722,398 L 719,398 L 716,399 L 722,402 Z
    M 723,419 L 708,410 L 691,402 L 686,403 L 657,408 L 629,417 L 644,422 L 658,428 L 676,435 L 694,443 L 708,441 L 723,440 Z
    M 724,454 L 719,455 L 716,455 L 724,460 Z
    M 728,554 L 733,565 L 735,577 L 766,546 L 728,508 L 710,526 L 722,538 Z
    M 776,536 L 784,527 L 747,490 L 738,498 Z
    M 794,517 L 803,509 L 765,471 L 757,480 Z
    M 813,499 L 821,490 L 784,453 L 775,461 Z
    M 894,507 L 896,504 L 897,501 L 898,596 L 836,496 L 825,507 Z
    M 846,423 L 846,466 L 876,435 L 869,430 L 853,424 Z
    M 653,969 L 658,971 L 663,972 L 663,904 L 653,893 Z
    M 677,974 L 700,973 L 717,958 L 677,918 Z
    M 697,917 L 727,947 L 736,934 L 737,917 Z
    M 715,866 L 680,901 L 683,903 L 736,903 L 733,884 L 719,871 Z
    M 705,856 L 697,848 L 662,882 L 670,891 Z
    M 686,838 L 678,829 L 643,864 L 652,872 Z
    M 186,727 L 243,784 L 258,784 L 201,727 Z
    M 151,727 L 208,784 L 223,784 L 166,727 Z
    M 116,727 L 174,784 L 188,784 L 131,727 Z
    M 160,847 L 172,847 L 172,799 L 160,799 Z
    M 187,847 L 198,847 L 198,799 L 187,799 Z
    M 213,847 L 225,847 L 225,799 L 213,799 Z
    M 239,847 L 251,847 L 251,799 L 239,799 Z
    M 81,727 L 139,784 L 153,784 L 96,727 Z
    M 56,736 L 104,784 L 119,784 L 65,731 L 60,733 Z
    M 71,799 L 28,799 L 32,815 L 42,827 Z
    M 88,848 L 94,848 L 94,799 L 91,799 L 53,836 L 69,848 Z
    M 84,784 L 44,745 L 28,761 L 27,784 Z
    M 108,847 L 120,847 L 120,799 L 108,799 Z
    M 134,847 L 146,847 L 146,799 L 134,799 Z
  "></path>
  </g>
</svg>
